<svg width="22" height="22" viewBox="0 0 22 22" fill="none" xmlns="http://www.w3.org/2000/svg">
<path fill-rule="evenodd" clip-rule="evenodd" d="M2.09844 2.06803C3.43306 0.752215 5.42825 0.25 8 0.25H14C16.5717 0.25 18.5669 0.752215 19.9016 2.06803C21.2388 3.38645 21.75 5.36036 21.75 7.90141V13.8169C21.75 15.7421 21.4582 17.3367 20.7378 18.5712C19.9998 19.8357 18.8593 20.6425 17.3416 21.0661C17.3189 21.0724 17.2958 21.0777 17.2726 21.0819C14.8538 21.5162 12.934 21.7493 11.0003 21.75C9.0664 21.7507 7.14636 21.5188 4.72667 21.0817C4.70368 21.0776 4.68089 21.0723 4.65838 21.0661C3.14067 20.6425 2.00024 19.8357 1.26224 18.5712C0.541817 17.3367 0.25 15.7421 0.25 13.8169V7.90141C0.25 5.36036 0.761192 3.38645 2.09844 2.06803ZM3.15156 3.13619C2.23881 4.03608 1.75 5.51288 1.75 7.90141V13.8169C1.75 15.6184 2.02818 16.9077 2.55776 17.8151C2.95046 18.488 3.50643 18.9938 4.28666 19.3444C5.03471 16.7669 7.86817 15.0092 11 15.0092C14.1318 15.0092 16.9653 16.7669 17.7133 19.3444C18.4936 18.9938 19.0495 18.488 19.4422 17.8151C19.9718 16.9077 20.25 15.6184 20.25 13.8169V7.90141C20.25 5.51288 19.7612 4.03608 18.8484 3.13619C17.9331 2.2337 16.4283 1.75 14 1.75H8C5.57175 1.75 4.06694 2.2337 3.15156 3.13619ZM16.2607 19.7356C15.7159 17.9714 13.6693 16.5092 11 16.5092C8.33031 16.5092 6.28355 17.9718 5.7391 19.7363C7.7599 20.0786 9.38539 20.2506 10.9997 20.25C12.6142 20.2494 14.2396 20.0764 16.2607 19.7356ZM11 6.67958C9.42415 6.67958 8.17 7.93127 8.17 9.45916C8.17 10.9898 9.42689 12.2486 11 12.2486C12.5731 12.2486 13.83 10.9898 13.83 9.45916C13.83 7.93127 12.5758 6.67958 11 6.67958ZM6.67 9.45916C6.67 7.08286 8.61585 5.17958 11 5.17958C13.3842 5.17958 15.33 7.08286 15.33 9.45916C15.33 11.8328 13.3869 13.7486 11 13.7486C8.61311 13.7486 6.67 11.8328 6.67 9.45916Z" fill="#B3B6BE"/>
</svg>
