<svg width="17" height="19" viewBox="0 0 17 19" fill="none" xmlns="http://www.w3.org/2000/svg">
<path d="M2.99999 1.79167C2.4247 1.79167 1.95833 2.25804 1.95833 2.83334V16.1667C1.95833 16.742 2.4247 17.2083 2.99999 17.2083H7.99999C8.34517 17.2083 8.62499 17.4882 8.62499 17.8333C8.62499 18.1785 8.34517 18.4583 7.99999 18.4583H2.99999C1.73434 18.4583 0.708328 17.4323 0.708328 16.1667V2.83334C0.708328 1.56769 1.73434 0.541672 2.99999 0.541672H13C14.2656 0.541672 15.2917 1.56769 15.2917 2.83334V9.50001C15.2917 9.84518 15.0118 10.125 14.6667 10.125C14.3215 10.125 14.0417 9.84518 14.0417 9.50001V2.83334C14.0417 2.25804 13.5753 1.79167 13 1.79167H2.99999Z" fill="#FF9D2A"/>
<path d="M3.20833 7.8334C3.20833 7.48822 3.48815 7.2084 3.83333 7.2084H8.83333C9.17851 7.2084 9.45833 7.48822 9.45833 7.8334C9.45833 8.17857 9.17851 8.4584 8.83333 8.4584H3.83333C3.48815 8.4584 3.20833 8.17857 3.20833 7.8334Z" fill="#FF9D2A"/>
<path d="M3.83333 3.87506C3.48815 3.87506 3.20833 4.15488 3.20833 4.50006C3.20833 4.84524 3.48815 5.12506 3.83333 5.12506H12.1667C12.5118 5.12506 12.7917 4.84524 12.7917 4.50006C12.7917 4.15488 12.5118 3.87506 12.1667 3.87506H3.83333Z" fill="#FF9D2A"/>
<path d="M15.9419 12.4419C16.186 12.1979 16.186 11.8021 15.9419 11.5581C15.6979 11.314 15.3021 11.314 15.0581 11.5581L13 13.6161L10.9419 11.5581C10.6979 11.314 10.3021 11.314 10.0581 11.5581C9.81398 11.8021 9.81398 12.1979 10.0581 12.4419L12.1161 14.5L10.0581 16.5581C9.81398 16.8021 9.81398 17.1979 10.0581 17.4419C10.3021 17.686 10.6979 17.686 10.9419 17.4419L13 15.3839L15.0581 17.4419C15.3021 17.686 15.6979 17.686 15.9419 17.4419C16.186 17.1979 16.186 16.8021 15.9419 16.5581L13.8839 14.5L15.9419 12.4419Z" fill="#FF9D2A"/>
</svg>
