<svg width="21" height="14" viewBox="0 0 21 14" fill="none" xmlns="http://www.w3.org/2000/svg">
<path d="M7.01302 1.8418C6.79166 1.8418 6.60286 1.76693 6.44661 1.61719C6.29687 1.46745 6.222 1.2819 6.222 1.06055C6.222 0.839193 6.29687 0.653646 6.44661 0.503906C6.60286 0.347656 6.79166 0.269531 7.01302 0.269531H19.3763C19.5977 0.269531 19.7832 0.347656 19.9329 0.503906C20.0892 0.653646 20.1673 0.839193 20.1673 1.06055C20.1673 1.2819 20.0892 1.46745 19.9329 1.61719C19.7832 1.76693 19.5977 1.8418 19.3763 1.8418H7.01302ZM7.01302 7.75C6.79166 7.75 6.60286 7.67513 6.44661 7.52539C6.29687 7.36914 6.222 7.18034 6.222 6.95898C6.222 6.73763 6.29687 6.55208 6.44661 6.40234C6.60286 6.2526 6.79166 6.17773 7.01302 6.17773H19.3763C19.5977 6.17773 19.7832 6.2526 19.9329 6.40234C20.0892 6.55208 20.1673 6.73763 20.1673 6.95898C20.1673 7.18034 20.0892 7.36914 19.9329 7.52539C19.7832 7.67513 19.5977 7.75 19.3763 7.75H7.01302ZM7.01302 13.6484C6.79166 13.6484 6.60286 13.5736 6.44661 13.4238C6.29687 13.2741 6.222 13.0885 6.222 12.8672C6.222 12.6458 6.29687 12.4603 6.44661 12.3105C6.60286 12.1543 6.79166 12.0762 7.01302 12.0762H19.3763C19.5977 12.0762 19.7832 12.1543 19.9329 12.3105C20.0892 12.4603 20.1673 12.6458 20.1673 12.8672C20.1673 13.0885 20.0892 13.2741 19.9329 13.4238C19.7832 13.5736 19.5977 13.6484 19.3763 13.6484H7.01302ZM1.45638 2.02734C1.18945 2.02734 0.961583 1.93294 0.772781 1.74414C0.583979 1.54883 0.489578 1.32096 0.489578 1.06055C0.489578 0.787109 0.583979 0.55599 0.772781 0.367188C0.961583 0.178385 1.18945 0.0839844 1.45638 0.0839844H3.1263C3.39322 0.0839844 3.62109 0.178385 3.80989 0.367188C4.0052 0.55599 4.10286 0.787109 4.10286 1.06055C4.10286 1.32096 4.0052 1.54883 3.80989 1.74414C3.62109 1.93294 3.39322 2.02734 3.1263 2.02734H1.45638ZM1.45638 7.93555C1.18945 7.93555 0.961583 7.84115 0.772781 7.65234C0.583979 7.45703 0.489578 7.22591 0.489578 6.95898C0.489578 6.69206 0.583979 6.46419 0.772781 6.27539C0.961583 6.08659 1.18945 5.99219 1.45638 5.99219H3.1263C3.39322 5.99219 3.62109 6.08659 3.80989 6.27539C4.0052 6.46419 4.10286 6.69206 4.10286 6.95898C4.10286 7.22591 4.0052 7.45703 3.80989 7.65234C3.62109 7.84115 3.39322 7.93555 3.1263 7.93555H1.45638ZM1.45638 13.834C1.18945 13.834 0.961583 13.7396 0.772781 13.5508C0.583979 13.362 0.489578 13.1341 0.489578 12.8672C0.489578 12.5938 0.583979 12.3626 0.772781 12.1738C0.961583 11.985 1.18945 11.8906 1.45638 11.8906H3.1263C3.39322 11.8906 3.62109 11.985 3.80989 12.1738C4.0052 12.3626 4.10286 12.5938 4.10286 12.8672C4.10286 13.1341 4.0052 13.362 3.80989 13.5508C3.62109 13.7396 3.39322 13.834 3.1263 13.834H1.45638Z" fill="#B3B6BE"/>
</svg>
