<svg width="22" height="16" viewBox="0 0 22 16" fill="none" xmlns="http://www.w3.org/2000/svg">
<path fill-rule="evenodd" clip-rule="evenodd" d="M2.99966 0.25C1.48088 0.25 0.249664 1.48122 0.249664 3V13C0.249664 14.5188 1.48088 15.75 2.99966 15.75H18.9997C20.5184 15.75 21.7497 14.5188 21.7497 13V3C21.7497 1.48122 20.5184 0.25 18.9997 0.25H2.99966ZM1.74966 3C1.74966 2.30964 2.30931 1.75 2.99966 1.75H18.9997C19.69 1.75 20.2497 2.30964 20.2497 3V5.5H1.74966V3ZM1.74966 7V13C1.74966 13.6904 2.30931 14.25 2.99966 14.25H18.9997C19.69 14.25 20.2497 13.6904 20.2497 13V7H1.74966Z" fill="#B3B6BE"/>
</svg>
